<?xml version="1.0" encoding="utf-8"?>
<!-- Generator: Adobe Illustrator 24.1.2, SVG Export Plug-In . SVG Version: 6.00 Build 0)  -->
<svg version="1.1" id="Layer_1" xmlns="http://www.w3.org/2000/svg" xmlns:xlink="http://www.w3.org/1999/xlink" x="0px" y="0px"
	 viewBox="0 0 900 500" style="enable-background:new 0 0 900 500;" xml:space="preserve">
<style type="text/css">
	.st0{fill:#0A0A0A;}
	.st1{fill:#28208C;}
	.st2{fill:#FFFFFF;}
	.st3{fill:#0C2A43;}
	.st4{fill:#ED4545;}
	.st5{fill:#214077;}
	.st6{fill:#EE750D;}
	.st7{fill:#0177C1;}
	.st8{fill:#013E7D;}
	.st9{fill:#10AD5D;}
	.st10{fill:#0071BC;}
	.st11{fill:#FFCC57;}
	.st12{fill:none;stroke:#214077;stroke-width:3;stroke-linecap:round;stroke-miterlimit:10;}
	.st13{fill:#FFCC29;}
	.st14{fill:#8EC840;}
	.st15{fill:#353535;}
</style>
<g>
	<g>
		<g>
			<path class="st15" d="M217.89,387.63h-23.38l-4.89,14.05h-10.9l22.8-60.35h9.41l22.84,60.35h-10.94L217.89,387.63z
				 M197.45,379.17h17.49l-8.75-25.04L197.45,379.17z"/>
			<path class="st15" d="M247.39,401.68v-60.35h17.82c5.33,0,10.07,1.19,14.2,3.56c4.13,2.38,7.33,5.75,9.6,10.11
				c2.27,4.37,3.4,9.37,3.4,15v3.03c0,5.72-1.14,10.75-3.42,15.09c-2.28,4.34-5.53,7.68-9.74,10.03c-4.21,2.35-9.04,3.52-14.49,3.52
				H247.39z M257.88,349.78v43.52h6.84c5.5,0,9.72-1.72,12.66-5.16c2.94-3.44,4.44-8.38,4.5-14.82v-3.36
				c0-6.55-1.42-11.55-4.27-15.01c-2.85-3.45-6.98-5.18-12.39-5.18H257.88z"/>
			<path class="st15" d="M372.35,376.1h-24.29v25.58h-10.49v-60.35h38.34v8.46h-27.86v17.95h24.29V376.1z"/>
			<path class="st15" d="M402.07,401.68h-10.45v-60.35h10.45V401.68z"/>
			<path class="st15" d="M469.62,401.68h-10.49l-26.9-42.82v42.82h-10.49v-60.35h10.49l26.99,42.98v-42.98h10.4V401.68z"/>
			<path class="st15" d="M534.86,382.03c-0.61,6.44-2.98,11.46-7.13,15.07s-9.66,5.41-16.54,5.41c-4.81,0-9.04-1.14-12.7-3.42
				c-3.66-2.28-6.49-5.52-8.48-9.72c-1.99-4.2-3.03-9.08-3.11-14.63v-5.64c0-5.69,1.01-10.71,3.03-15.05
				c2.02-4.34,4.91-7.68,8.68-10.03c3.77-2.35,8.13-3.52,13.08-3.52c6.66,0,12.02,1.8,16.08,5.41c4.06,3.61,6.42,8.71,7.09,15.32
				h-10.45c-0.5-4.34-1.76-7.47-3.79-9.39c-2.03-1.92-5.01-2.88-8.93-2.88c-4.56,0-8.06,1.67-10.51,5
				c-2.45,3.33-3.7,8.22-3.75,14.67v5.35c0,6.53,1.17,11.51,3.5,14.94c2.34,3.43,5.75,5.14,10.26,5.14c4.12,0,7.21-0.93,9.28-2.78
				c2.07-1.85,3.38-4.93,3.94-9.24H534.86z"/>
			<path class="st15" d="M599.18,373.08c0,5.91-1.02,11.1-3.07,15.56c-2.05,4.46-4.97,7.89-8.77,10.28
				c-3.8,2.39-8.17,3.59-13.12,3.59c-4.89,0-9.25-1.2-13.08-3.59c-3.83-2.39-6.78-5.8-8.87-10.22c-2.09-4.42-3.14-9.52-3.17-15.3
				v-3.4c0-5.89,1.04-11.08,3.13-15.58c2.09-4.5,5.03-7.95,8.83-10.34c3.8-2.39,8.16-3.59,13.08-3.59c4.92,0,9.28,1.18,13.08,3.54
				c3.8,2.36,6.74,5.76,8.81,10.2c2.07,4.43,3.12,9.6,3.15,15.48V373.08z M588.7,369.93c0-6.69-1.26-11.81-3.79-15.38
				c-2.53-3.57-6.11-5.35-10.76-5.35c-4.53,0-8.08,1.78-10.63,5.33c-2.56,3.55-3.86,8.57-3.92,15.07v3.48
				c0,6.63,1.29,11.76,3.88,15.38c2.58,3.62,6.17,5.43,10.76,5.43c4.64,0,8.21-1.77,10.72-5.31c2.5-3.54,3.75-8.7,3.75-15.5V369.93z
				"/>
			<path class="st15" d="M638.6,378.46h-11.69v23.21h-10.49v-60.35h21.22c6.96,0,12.34,1.56,16.12,4.69
				c3.79,3.13,5.68,7.65,5.68,13.57c0,4.04-0.97,7.42-2.92,10.14c-1.95,2.72-4.66,4.82-8.14,6.28l13.55,25.13v0.54H650.7
				L638.6,378.46z M626.91,370.01h10.78c3.54,0,6.3-0.89,8.29-2.67c1.99-1.78,2.98-4.22,2.98-7.32c0-3.23-0.92-5.73-2.76-7.5
				c-1.84-1.77-4.58-2.68-8.23-2.74h-11.07V370.01z"/>
			<path class="st15" d="M686.67,379.29v22.38h-10.49v-60.35h23.09c6.74,0,12.1,1.76,16.06,5.27c3.97,3.51,5.95,8.16,5.95,13.94
				c0,5.92-1.94,10.53-5.82,13.82c-3.88,3.29-9.32,4.94-16.31,4.94H686.67z M686.67,370.84h12.6c3.73,0,6.58-0.88,8.54-2.63
				c1.96-1.75,2.94-4.29,2.94-7.61c0-3.26-0.99-5.87-2.98-7.81c-1.99-1.95-4.73-2.95-8.21-3.01h-12.89V370.84z"/>
		</g>
	</g>
	<g>
		<path class="st14" d="M444.84,291.9h-51.78l-13.54-39.3h-71.94l-13.54,39.3h-50.52l71.81-194.41h57.71L444.84,291.9z
			 M367.47,216.96l-23.92-69.65l-23.92,69.65H367.47z"/>
		<g>
			<g>
				<path class="st14" d="M644.93,145.87c-7.7-13.88-18.26-24.92-31.66-33.1c-7.83-4.87-17.5-8.64-28.99-11.29
					c-11.49-2.65-25.16-3.98-41-3.98h-70.51V291.9h15.48l-2.2-1.99l45.01-49.55l24.71,18.91l61.53-72.25l-4.67-3.78l23.2-8.83
					l-4.16,24.59l-4.16-3.91l-69.85,81.95l-24.96-19.54l-31.42,34.4h6.44l25.08-27.71l2.55,2.43v25.29h5.97
					c0.58,0,1.14-0.01,1.72-0.02v-19.41l14.91,11.06l14.09-16.08v22.6c2.35-0.31,4.61-0.67,6.81-1.07v-29.86l28.75-34.14v54.36
					c1.74-0.91,3.46-1.85,5.15-2.87c12.62-7.66,23.06-18.65,31.33-32.97c8.27-14.32,12.4-30.53,12.4-48.63
					C656.49,176.09,652.64,159.75,644.93,145.87z M535.36,240.99l-4.41-3.28l-24.21,26.48v-29.25h28.62V240.99z M572.05,238.34
					L555.78,257l-12.73-9.83v-44.38h29V238.34z M607.6,196.23l-28.75,33.66v-74.51h28.75V196.23z"/>
			</g>
		</g>
	</g>
</g>
</svg>
