<?xml version="1.0" encoding="utf-8"?>
<!-- Generator: Adobe Illustrator 24.1.2, SVG Export Plug-In . SVG Version: 6.00 Build 0)  -->
<svg version="1.1" id="Layer_1" xmlns="http://www.w3.org/2000/svg" xmlns:xlink="http://www.w3.org/1999/xlink" x="0px" y="0px"
	 viewBox="0 0 900 500" style="enable-background:new 0 0 900 500;" xml:space="preserve">
<style type="text/css">
	.st0{fill:#0A0A0A;}
	.st1{fill:#28208C;}
	.st2{fill:#FFFFFF;}
	.st3{fill:#0C2A43;}
	.st4{fill:#ED4545;}
	.st5{fill:#212D94;}
	.st6{fill:#0177C1;}
	.st7{fill:#013E7D;}
	.st8{fill:#10AD5D;}
	.st9{fill:#0071BC;}
	.st10{fill:#3B3B3B;}
	.st11{fill:#FFCC57;}
</style>
<g>
	<g>
		<rect class="st2" width="900" height="500"/>
	</g>
	<g>
		<g>
			<g>
				<path class="st3" d="M464.6,189.55l-10.27-10.27c-3.88-3.88-10.17-3.88-14.05,0l-10.27,10.27c-2,2-2.97,4.64-2.91,7.26
					c1.15,20.9-9.46,31.48-31.42,31.82c-0.28-0.02-0.57-0.03-0.85-0.02c-20.9,1.15-31.48-9.46-31.82-31.42
					c0.02-0.29,0.03-0.57,0.02-0.86c-1.17-21.34,9.91-31.92,32.81-31.82c2.28-0.18,4.5-1.14,6.25-2.88l10.27-10.27
					c3.88-3.88,3.88-10.17,0-14.05l-10.27-10.27c-3.88-3.88-10.17-3.88-14.05,0l-10.27,10.27c-1.74,1.74-2.7,3.97-2.88,6.25
					c0.1,22.9-10.48,33.99-31.82,32.81c-2.62-0.06-5.26,0.91-7.26,2.91l-10.27,10.27c-3.88,3.88-3.88,10.17,0,14.05l10.27,10.27
					c1.9,1.9,4.61,3.08,7.64,2.89c21.84,0.33,32.45,10.8,31.44,31.48c-0.16,2.81,0.86,5.57,2.89,7.6l10.27,10.27
					c3.88,3.88,10.17,3.88,14.05,0l10.27-10.27c1.74-1.74,2.7-3.97,2.88-6.25c-0.1-22.9,10.48-33.99,31.82-32.81
					c2.62,0.06,5.26-0.91,7.26-2.91l10.27-10.27C468.48,199.72,468.48,193.43,464.6,189.55z"/>
			</g>
			<g>
				<g>
					<path class="st4" d="M377.78,203.6l10.27,10.27c3.88,3.88,10.17,3.88,14.05,0l10.27-10.27c2-2,2.97-4.64,2.91-7.26
						c-1.15-20.9,9.46-31.48,31.42-31.82c0.28,0.02,0.57,0.03,0.85,0.02c20.9-1.15,31.48,9.46,31.82,31.42
						c-0.02,0.29-0.03,0.57-0.02,0.86c1.17,21.34-9.91,31.92-32.81,31.82c-2.28,0.18-4.5,1.14-6.25,2.88l-10.27,10.27
						c-3.88,3.88-3.88,10.17,0,14.05l10.27,10.27c3.88,3.88,10.17,3.88,14.05,0l10.27-10.27c1.74-1.74,2.7-3.97,2.88-6.25
						c-0.1-22.9,10.48-33.99,31.82-32.81c2.62,0.06,5.26-0.91,7.26-2.91l10.27-10.27c3.88-3.88,3.88-10.17,0-14.05l-10.27-10.27
						c-1.9-1.9-4.61-3.08-7.64-2.89c-21.84-0.33-32.45-10.8-31.44-31.48c0.16-2.81-0.86-5.57-2.89-7.6l-10.27-10.27
						c-3.88-3.88-10.17-3.88-14.05,0l-10.27,10.27c-1.74,1.74-2.7,3.97-2.88,6.25c0.1,22.9-10.48,33.99-31.82,32.81
						c-2.62-0.06-5.26,0.91-7.26,2.91l-10.27,10.27C373.9,193.43,373.9,199.72,377.78,203.6z"/>
				</g>
			</g>
		</g>
		<g>
			<path class="st4" d="M134.49,335.11v7.77c0.08,2.25,0.92,4.18,3.76,4.18c4.17,0,4.26-3.17,4.26-6.6v-48.1h11.69v45.68
				c0,4.26,0.33,10.36-3.42,14.36c-3.42,3.67-8.6,4.09-14.28,4.09c-4.18,0-8.85-1.59-12.03-6.43c-1.42-2.25-2-9.19-1.67-14.95
				H134.49z"/>
			<path class="st4" d="M165.22,354.99v-62.63h24.39c2.84,0,8.52,1.25,12.11,7.1c2.67,4.34,3.42,11.27,3.42,21.63
				c0,12.36,0,26.64-9.6,32.24c-2.59,1.5-5.76,1.67-8.68,1.67H165.22z M182.01,345.8c10.44,0,11.11-5.51,11.11-23.63
				c0-14.78-1.5-20.63-8.52-20.63h-7.68v44.26H182.01z"/>
			<path class="st4" d="M216,354.99v-62.63h11.69v62.63H216z"/>
		</g>
		<g>
			<path class="st3" d="M241.02,292.35h39v9.19h-13.61v53.45h-11.69v-53.45h-13.7V292.35z"/>
			<path class="st3" d="M286.71,354.99v-62.63h32.9v9.19H298.4v15.78h19.54v9.19H298.4v19.29h21.21v9.19H286.71z"/>
			<path class="st3" d="M365.88,332.69c-0.08,1.17-0.17,2.42-0.25,3.59c-0.58,11.44-4.43,20.21-17.45,20.21
				c-19.21,0-20.46-12.19-20.46-28.9v-8.94c0.5-15.95,1.75-27.81,20.46-27.81c10.44,0.17,16.28,5.51,17.12,16.2
				c0.17,1.59,0.33,3.17,0.25,4.76h-11.52c-0.5-4.01-0.08-11.52-5.85-11.52c-9.19,0-8.43,10.94-8.43,15.78v17.37
				c0,5.18,0.42,13.61,8.43,13.61c6.43,0,5.68-10.36,5.93-14.36H365.88z"/>
			<path class="st3" d="M375.23,354.99v-62.63h11.69v24.8h16.37v-24.8h11.69v62.63h-11.69v-28.64h-16.37v28.64H375.23z"/>
			<path class="st3" d="M454.24,292.35h11.69v62.63h-12.19l-9.1-22.3c-3.09-7.43-5.59-15.03-8.35-24.89h-0.17
				c0.42,5.18,0.92,11.52,1.25,17.87c0.33,6.26,0.58,12.53,0.58,17.54v11.77h-11.69v-62.63h12.11l9.1,22.8
				c3.01,7.27,5.51,14.7,8.35,24.89h0.17c-0.42-5.68-0.84-11.77-1.17-17.79s-0.58-12.03-0.58-17.62V292.35z"/>
			<path class="st3" d="M476.71,318.66c0.5-15.95,1.75-27.81,20.46-27.81c18.71,0,19.96,11.86,20.46,27.81v8.94
				c0,16.7-1.25,28.9-20.46,28.9c-19.21,0-20.46-12.19-20.46-28.9V318.66z M488.73,333.44c0,5.18,0.42,13.61,8.43,13.61
				c8.35,0,8.43-8.6,8.43-14.61V316.4c0-5.01,0.25-16.12-8.43-16.12c-9.19,0-8.43,10.94-8.43,15.78V333.44z"/>
			<path class="st3" d="M528.32,354.99v-62.63h11.69v53.45h21.71v9.19H528.32z"/>
			<path class="st3" d="M569.49,318.66c0.5-15.95,1.75-27.81,20.46-27.81c18.71,0,19.96,11.86,20.46,27.81v8.94
				c0,16.7-1.25,28.9-20.46,28.9c-19.21,0-20.46-12.19-20.46-28.9V318.66z M581.52,333.44c0,5.18,0.42,13.61,8.43,13.61
				c8.35,0,8.43-8.6,8.43-14.61V316.4c0-5.01,0.25-16.12-8.43-16.12c-9.19,0-8.43,10.94-8.43,15.78V333.44z"/>
			<path class="st3" d="M620.02,318.66c0.5-15.95,1.75-27.81,20.46-27.81c10.02,0.08,16.95,2.67,19.63,13.53
				c0.58,2.51,0.5,5.09,0.58,7.6H649c-0.17-6.35-0.58-11.36-8.52-11.69c-9.19,0-8.43,10.94-8.43,15.78v17.37
				c0,5.18,0.42,13.61,8.43,13.61c6.68,0,8.85-7.1,8.6-16.54h-8.1v-9.19h19.46v33.66h-8.77v-7.18h-0.17
				c-2.34,6.51-6.76,8.35-11.02,8.69c-19.21,0-20.46-12.19-20.46-28.9V318.66z"/>
			<path class="st3" d="M672.22,354.99v-62.63h11.69v62.63H672.22z"/>
			<path class="st3" d="M695.02,354.99v-62.63h32.9v9.19h-21.21v15.78h19.54v9.19h-19.54v19.29h21.21v9.19H695.02z"/>
			<path class="st3" d="M761,311.39c0.08-5.6-0.42-11.11-6.85-11.11c-3.92,0-6.43,1.59-6.43,5.85c0,4.76,3.01,6.6,6.68,8.94
				c3.84,2.42,10.94,7.1,14.2,10.27c4.01,3.92,5.26,7.68,5.26,13.11c0,11.86-7.85,18.04-19.29,18.04
				c-14.03,0-19.04-7.85-19.04-19.04v-4.59h11.69v3.67c-0.25,6.1,1.59,10.52,7.35,10.52c4.93,0,7.27-2.59,7.27-7.35
				c0-3.67-1.67-6.18-4.68-8.27c-6.1-4.76-13.7-8.18-18.46-14.45c-1.92-2.84-3.01-6.26-3.01-9.6c0-10.69,6.01-16.54,18.37-16.54
				c18.62,0,18.12,14.36,18.21,20.54H761z"/>
		</g>
	</g>
</g>
</svg>
