<?xml version="1.0" encoding="utf-8"?>
<!-- Generator: Adobe Illustrator 24.1.2, SVG Export Plug-In . SVG Version: 6.00 Build 0)  -->
<svg version="1.1" id="Layer_1" xmlns="http://www.w3.org/2000/svg" xmlns:xlink="http://www.w3.org/1999/xlink" x="0px" y="0px"
	 viewBox="0 0 900 500" style="enable-background:new 0 0 900 500;" xml:space="preserve">
<style type="text/css">
	.st0{fill:#0A0A0A;}
	.st1{fill:#28208C;}
	.st2{fill:#FFFFFF;}
	.st3{fill:#0C2A43;}
	.st4{fill:#ED4545;}
	.st5{fill:#212D94;}
	.st6{fill:#0177C1;}
	.st7{fill:#013E7D;}
	.st8{fill:#10AD5D;}
	.st9{fill:#0071BC;}
	.st10{fill:#3B3B3B;}
	.st11{fill:#FFCC57;}
</style>
<g>
	<g>
		<rect class="st2" width="900" height="500"/>
	</g>
	<g>
		<g>
			<g>
				<path class="st8" d="M153.12,316.27v48.19h-6.29v-48.19H153.12z"/>
			</g>
			<g>
				<path class="st8" d="M218.24,316.61v47.84h-6.29v-35.68l-15.9,35.68h-4.43l-15.97-35.74v35.74h-6.29v-47.84h6.78l17.7,39.55
					l17.7-39.55H218.24z"/>
			</g>
			<g>
				<path class="st8" d="M262.53,340.36c-2.74,2.65-6.93,3.97-12.55,3.97h-9.27v20.12h-6.29v-48.19h15.56
					c5.44,0,9.58,1.31,12.41,3.94c2.83,2.63,4.25,6.02,4.25,10.16C266.64,334.38,265.27,337.71,262.53,340.36z M257.72,336.87
					c1.66-1.52,2.49-3.69,2.49-6.5c0-5.95-3.41-8.92-10.23-8.92h-9.27v17.7h9.27C253.48,339.15,256.06,338.39,257.72,336.87z"/>
			</g>
			<g>
				<path class="st8" d="M289.6,361.8c-3.69-2.1-6.6-5.02-8.75-8.78c-2.14-3.76-3.21-7.99-3.21-12.69c0-4.7,1.07-8.93,3.21-12.69
					c2.14-3.76,5.06-6.68,8.75-8.78c3.69-2.1,7.77-3.14,12.24-3.14c4.52,0,8.62,1.05,12.31,3.14c3.69,2.1,6.59,5.01,8.71,8.75
					c2.12,3.73,3.18,7.98,3.18,12.72c0,4.75-1.06,8.99-3.18,12.72c-2.12,3.73-5.02,6.65-8.71,8.75c-3.69,2.1-7.79,3.14-12.31,3.14
					C297.36,364.94,293.28,363.9,289.6,361.8z M310.92,357.13c2.7-1.57,4.82-3.8,6.36-6.71c1.54-2.9,2.31-6.27,2.31-10.1
					c0-3.87-0.77-7.25-2.31-10.13c-1.55-2.88-3.65-5.1-6.33-6.67c-2.67-1.57-5.72-2.35-9.13-2.35c-3.41,0-6.45,0.78-9.13,2.35
					c-2.67,1.57-4.78,3.79-6.33,6.67c-1.55,2.88-2.32,6.26-2.32,10.13c0,3.83,0.77,7.19,2.32,10.1c1.54,2.9,3.66,5.14,6.36,6.71
					c2.7,1.57,5.73,2.35,9.09,2.35C305.2,359.48,308.23,358.7,310.92,357.13z"/>
			</g>
			<g>
				<path class="st8" d="M365.23,364.46l-11.48-19.71h-7.61v19.71h-6.29v-48.19h15.56c3.64,0,6.72,0.62,9.23,1.87
					c2.51,1.24,4.39,2.93,5.63,5.05c1.24,2.12,1.87,4.54,1.87,7.26c0,3.32-0.96,6.25-2.87,8.78c-1.91,2.54-4.78,4.22-8.61,5.05
					l12.1,20.19H365.23z M346.15,339.71h9.27c3.41,0,5.97-0.84,7.67-2.52c1.7-1.68,2.56-3.93,2.56-6.74c0-2.86-0.84-5.07-2.52-6.64
					c-1.68-1.57-4.25-2.35-7.71-2.35h-9.27V339.71z"/>
			</g>
			<g>
				<path class="st8" d="M417.09,316.27v5.12h-13.14v43.07h-6.29v-43.07h-13.2v-5.12H417.09z"/>
			</g>
			<g>
				<path class="st8" d="M460.64,321.39v16.11h17.56v5.19h-17.56v16.59h19.64v5.19h-25.93V316.2h25.93v5.19H460.64z"/>
			</g>
			<g>
				<path class="st8" d="M515.06,340.4l14.8,24.06h-7.12l-11.55-18.81l-10.99,18.81h-6.98l14.73-24.06l-14.8-24.13h7.05l11.61,18.87
					l11.06-18.87h7.05L515.06,340.4z"/>
			</g>
			<g>
				<path class="st8" d="M571.92,340.36c-2.74,2.65-6.93,3.97-12.55,3.97h-9.27v20.12h-6.29v-48.19h15.56
					c5.44,0,9.58,1.31,12.41,3.94c2.83,2.63,4.25,6.02,4.25,10.16C576.04,334.38,574.67,337.71,571.92,340.36z M567.12,336.87
					c1.66-1.52,2.49-3.69,2.49-6.5c0-5.95-3.41-8.92-10.23-8.92h-9.27v17.7h9.27C562.88,339.15,565.46,338.39,567.12,336.87z"/>
			</g>
			<g>
				<path class="st8" d="M598.99,361.8c-3.69-2.1-6.6-5.02-8.75-8.78c-2.14-3.76-3.21-7.99-3.21-12.69c0-4.7,1.07-8.93,3.21-12.69
					c2.14-3.76,5.06-6.68,8.75-8.78c3.69-2.1,7.77-3.14,12.24-3.14c4.52,0,8.62,1.05,12.31,3.14c3.69,2.1,6.59,5.01,8.71,8.75
					c2.12,3.73,3.18,7.98,3.18,12.72c0,4.75-1.06,8.99-3.18,12.72c-2.12,3.73-5.02,6.65-8.71,8.75c-3.69,2.1-7.79,3.14-12.31,3.14
					C606.76,364.94,602.68,363.9,598.99,361.8z M620.32,357.13c2.7-1.57,4.82-3.8,6.36-6.71c1.54-2.9,2.31-6.27,2.31-10.1
					c0-3.87-0.77-7.25-2.31-10.13c-1.55-2.88-3.65-5.1-6.33-6.67c-2.67-1.57-5.72-2.35-9.13-2.35c-3.41,0-6.45,0.78-9.13,2.35
					c-2.67,1.57-4.78,3.79-6.33,6.67c-1.55,2.88-2.32,6.26-2.32,10.13c0,3.83,0.77,7.19,2.32,10.1c1.54,2.9,3.66,5.14,6.36,6.71
					c2.7,1.57,5.73,2.35,9.09,2.35C614.59,359.48,617.62,358.7,620.32,357.13z"/>
			</g>
			<g>
				<path class="st8" d="M674.63,364.46l-11.48-19.71h-7.61v19.71h-6.29v-48.19h15.56c3.64,0,6.72,0.62,9.23,1.87
					c2.51,1.24,4.39,2.93,5.63,5.05c1.24,2.12,1.87,4.54,1.87,7.26c0,3.32-0.96,6.25-2.87,8.78c-1.91,2.54-4.78,4.22-8.61,5.05
					l12.1,20.19H674.63z M655.54,339.71h9.27c3.41,0,5.97-0.84,7.67-2.52c1.7-1.68,2.56-3.93,2.56-6.74c0-2.86-0.84-5.07-2.52-6.64
					c-1.68-1.57-4.25-2.35-7.71-2.35h-9.27V339.71z"/>
			</g>
			<g>
				<path class="st8" d="M726.48,316.27v5.12h-13.14v43.07h-6.29v-43.07h-13.2v-5.12H726.48z"/>
			</g>
		</g>
		<g>
			<g>
				<polygon class="st9" points="157.4,254.54 112.41,190.56 112.28,190.56 112.28,284.97 124.18,284.97 124.18,227.43 
					157.21,273.46 157.46,273.46 191,225.86 191,284.97 203.28,284.97 203.28,190.56 203.15,190.56 				"/>
			</g>
			<g>
				<path class="st9" d="M282.38,252.57c0,4.14-0.95,7.83-2.85,11.07c-1.9,3.25-4.54,5.8-7.91,7.66c-3.38,1.86-7.21,2.78-11.52,2.78
					c-4.05,0-7.74-0.93-11.07-2.78c-3.33-1.86-5.99-4.41-7.97-7.66c-1.98-3.25-2.97-6.94-2.97-11.07v-59.1H225.8v59.48
					c0,6.67,1.52,12.49,4.56,17.47c3.04,4.98,7.17,8.82,12.4,11.52c5.23,2.7,11.01,4.05,17.34,4.05c6.41,0,12.23-1.35,17.47-4.05
					c5.23-2.7,9.37-6.54,12.4-11.52c3.04-4.98,4.56-10.8,4.56-17.47v-59.48h-12.15V252.57z"/>
			</g>
			<g>
				<polygon class="st9" points="329.33,193.47 317.05,193.47 317.05,284.97 375.78,284.97 375.78,273.2 329.33,273.2 				"/>
			</g>
			<g>
				<polygon class="st9" points="375.78,205.24 399.82,205.24 399.82,284.97 412.1,284.97 412.1,205.24 436.65,205.24 
					436.65,193.47 375.78,193.47 				"/>
			</g>
			<g>
				<rect x="453.61" y="193.47" class="st9" width="12.28" height="91.5"/>
			</g>
			<g>
				<polygon class="st9" points="534.8,254.54 489.81,190.56 489.68,190.56 489.68,284.97 501.58,284.97 501.58,227.43 
					534.61,273.46 534.86,273.46 568.4,225.86 568.4,284.97 580.68,284.97 580.68,190.56 580.55,190.56 				"/>
			</g>
			<g>
				<polygon class="st9" points="616.75,244.98 658.89,244.98 658.89,233.08 616.75,233.08 616.75,205.24 663.96,205.24 
					663.96,193.47 604.47,193.47 604.47,284.97 665.73,284.97 665.73,273.2 616.75,273.2 				"/>
			</g>
			<g>
				<polygon class="st9" points="676.86,193.47 736.22,284.97 752.04,284.97 692.43,193.47 				"/>
			</g>
			<g>
				<polygon class="st8" points="675.6,284.97 690.78,284.97 709.98,252.73 702.99,241.97 				"/>
			</g>
			<g>
				<path class="st8" d="M779.36,135.06c-10.55,2.27-21.43,4.62-32.14,6.92c4.58,2.8,9.59,5.87,14.78,9.04
					c-8.14,13.31-17.84,29.08-26.02,42.45h-0.01l-18.21,30.69l6.76,10.38l25.58-40.02c0,0,0,0,0,0l0.67-1.05h-0.03
					c7.91-12.95,13.89-22.85,22.03-36.18c5.29,3.24,10.32,6.31,14.94,9.14C784.87,155.72,782.01,144.98,779.36,135.06z"/>
			</g>
		</g>
	</g>
</g>
</svg>
