<?xml version="1.0" encoding="utf-8"?>
<!-- Generator: Adobe Illustrator 24.1.2, SVG Export Plug-In . SVG Version: 6.00 Build 0)  -->
<svg version="1.1" id="Layer_1" xmlns="http://www.w3.org/2000/svg" xmlns:xlink="http://www.w3.org/1999/xlink" x="0px" y="0px"
	 viewBox="0 0 900 500" style="enable-background:new 0 0 900 500;" xml:space="preserve">
<style type="text/css">
	.st0{fill:#0A0A0A;}
	.st1{fill:#28208C;}
	.st2{fill:#FFFFFF;}
	.st3{fill:#0C2A43;}
	.st4{fill:#ED4545;}
	.st5{fill:#214077;}
	.st6{fill:#EE750D;}
	.st7{fill:#0177C1;}
	.st8{fill:#013E7D;}
	.st9{fill:#10AD5D;}
	.st10{fill:#0071BC;}
	.st11{fill:#FFCC57;}
	.st12{fill:none;stroke:#214077;stroke-width:3;stroke-linecap:round;stroke-miterlimit:10;}
	.st13{fill:#FFCC29;}
	.st14{fill:#8EC840;}
	.st15{fill:#353535;}
</style>
<g>
	<g>
		<rect class="st2" width="900" height="500"/>
	</g>
</g>
<g>
	<g>
		<g>
			<path class="st5" d="M387.49,242.03l-38.05-37.77l2.11,0.68l0.2,35.39h-7.35v-50.98h0.34l37.57,37.84l-1.7-0.48l-0.14-35.8h7.21
				v51.12H387.49z"/>
			<path class="st5" d="M396.61,240.33l21.71-51.39h0.41l21.71,51.39h-8.3l-15.79-40.02l5.24-3.47l-17.83,43.49H396.61z
				 M409.81,221.82h17.56l2.52,6.26h-22.26L409.81,221.82z"/>
			<path class="st5" d="M492.37,242.03l-38.05-37.77l2.11,0.68l0.2,35.39h-7.35v-50.98h0.34l37.57,37.84l-1.7-0.48l-0.14-35.8h7.21
				v51.12H492.37z"/>
			<path class="st5" d="M506.53,240.33v-49.41h13.75c4.9,0,9.07,0.75,12.52,2.25c3.45,1.5,6.23,3.47,8.34,5.92s3.65,5.17,4.63,8.17
				c0.98,2.99,1.46,6.01,1.46,9.05c0,3.68-0.66,6.99-1.97,9.94c-1.32,2.95-3.11,5.48-5.38,7.59c-2.27,2.11-4.88,3.72-7.83,4.83
				c-2.95,1.11-6.08,1.67-9.39,1.67H506.53z M513.81,233.32h7.49c2.68,0,5.14-0.38,7.38-1.16c2.25-0.77,4.2-1.91,5.85-3.4
				c1.66-1.5,2.94-3.34,3.85-5.51c0.91-2.18,1.36-4.67,1.36-7.49c0-3.04-0.51-5.68-1.53-7.93s-2.37-4.11-4.05-5.58
				c-1.68-1.47-3.55-2.56-5.62-3.27c-2.07-0.7-4.16-1.05-6.3-1.05h-8.44V233.32z"/>
			<path class="st5" d="M565.4,210.38l-0.2,2.45l1.02-1.43l19.33-20.49h9.39l-20.42,21.44l21.37,27.97h-9.19l-17.49-23.41
				l-3.81,3.74v19.67h-7.35v-49.41h7.35V210.38z"/>
			<path class="st5" d="M604.6,190.92h7.28v49.41h-7.28V190.92z"/>
			<path class="st5" d="M651.5,200.38c-1.73-0.91-3.59-1.68-5.58-2.31c-2-0.64-3.93-0.95-5.79-0.95c-2.54,0-4.56,0.58-6.06,1.74
				s-2.25,2.73-2.25,4.73c0,1.41,0.5,2.63,1.5,3.68c1,1.04,2.29,1.95,3.88,2.72c1.59,0.77,3.27,1.5,5.04,2.18
				c1.5,0.54,2.98,1.19,4.46,1.94c1.47,0.75,2.81,1.67,4.02,2.76c1.2,1.09,2.15,2.44,2.86,4.05c0.7,1.61,1.06,3.57,1.06,5.89
				c0,2.63-0.65,5.01-1.94,7.15c-1.29,2.13-3.15,3.82-5.58,5.07c-2.43,1.25-5.37,1.87-8.81,1.87c-2.09,0-4.12-0.24-6.09-0.71
				c-1.97-0.48-3.83-1.11-5.58-1.91c-1.75-0.79-3.32-1.67-4.73-2.62l3.27-5.65c1.09,0.77,2.34,1.51,3.74,2.21
				c1.41,0.7,2.87,1.26,4.39,1.67c1.52,0.41,2.96,0.61,4.32,0.61c1.5,0,2.97-0.26,4.42-0.78c1.45-0.52,2.65-1.34,3.61-2.45
				c0.95-1.11,1.43-2.58,1.43-4.39c0-1.54-0.42-2.85-1.26-3.91c-0.84-1.07-1.95-1.99-3.33-2.76c-1.38-0.77-2.87-1.45-4.46-2.04
				c-1.54-0.59-3.11-1.25-4.7-1.97c-1.59-0.73-3.06-1.6-4.42-2.62c-1.36-1.02-2.46-2.29-3.3-3.81c-0.84-1.52-1.26-3.39-1.26-5.61
				c0-2.63,0.62-4.93,1.87-6.91c1.25-1.97,2.98-3.53,5.21-4.66c2.22-1.13,4.79-1.77,7.69-1.91c3.31,0,6.19,0.41,8.64,1.22
				c2.45,0.82,4.63,1.79,6.53,2.93L651.5,200.38z"/>
			<path class="st5" d="M704.99,190.92v49.41h-7.28v-21.3h-25.05v21.3h-7.28v-49.41h7.28v21.17h25.05v-21.17H704.99z"/>
			<path class="st5" d="M715.82,215.69c0-3.4,0.65-6.63,1.94-9.67c1.29-3.04,3.1-5.74,5.41-8.1c2.31-2.36,4.99-4.21,8.03-5.55
				c3.04-1.34,6.31-2.01,9.8-2.01c3.45,0,6.69,0.67,9.73,2.01c3.04,1.34,5.74,3.19,8.1,5.55c2.36,2.36,4.2,5.06,5.51,8.1
				c1.32,3.04,1.97,6.26,1.97,9.67c0,3.49-0.66,6.76-1.97,9.8c-1.32,3.04-3.14,5.72-5.48,8.03c-2.34,2.31-5.04,4.12-8.1,5.41
				c-3.06,1.29-6.32,1.94-9.77,1.94c-3.49,0-6.76-0.64-9.8-1.91c-3.04-1.27-5.72-3.05-8.03-5.34c-2.31-2.29-4.12-4.97-5.41-8.03
				C716.46,222.53,715.82,219.23,715.82,215.69z M723.3,215.69c0,2.54,0.46,4.91,1.4,7.11c0.93,2.2,2.21,4.13,3.85,5.79
				c1.63,1.66,3.53,2.95,5.68,3.88c2.15,0.93,4.48,1.4,6.98,1.4c2.45,0,4.74-0.46,6.87-1.4c2.13-0.93,4-2.22,5.61-3.88
				c1.61-1.66,2.87-3.58,3.78-5.79c0.91-2.2,1.36-4.57,1.36-7.11c0-2.54-0.47-4.91-1.4-7.11c-0.93-2.2-2.2-4.14-3.81-5.82
				c-1.61-1.68-3.49-3-5.65-3.95c-2.16-0.95-4.46-1.43-6.91-1.43c-2.54,0-4.88,0.48-7.01,1.43c-2.13,0.95-4.02,2.27-5.65,3.95
				s-2.89,3.63-3.78,5.85C723.75,210.84,723.3,213.2,723.3,215.69z"/>
			<path class="st5" d="M790.68,190.92c2.59,0,4.98,0.35,7.18,1.06c2.2,0.7,4.08,1.71,5.65,3.03c1.57,1.32,2.79,2.94,3.68,4.87
				s1.33,4.16,1.33,6.7c0,1.95-0.3,3.88-0.88,5.79c-0.59,1.91-1.54,3.63-2.86,5.17c-1.32,1.54-3.04,2.78-5.17,3.71
				c-2.13,0.93-4.79,1.4-7.96,1.4h-7.21v17.7h-7.28v-49.41H790.68z M791.5,215.69c1.86,0,3.41-0.29,4.66-0.88
				c1.25-0.59,2.22-1.33,2.93-2.21c0.7-0.88,1.2-1.84,1.5-2.86c0.29-1.02,0.44-2.01,0.44-2.96c0-0.91-0.15-1.86-0.44-2.86
				c-0.3-1-0.79-1.95-1.5-2.86c-0.7-0.91-1.65-1.66-2.82-2.25c-1.18-0.59-2.63-0.88-4.36-0.88h-7.49v17.76H791.5z M799.87,219.91
				l12.8,20.42h-8.44l-13-20.21L799.87,219.91z"/>
		</g>
		<g>
			<g>
				<path class="st6" d="M392.65,279.62c1.59,0,3.02,0.22,4.31,0.65c1.28,0.43,2.36,1.05,3.24,1.86c0.88,0.81,1.52,1.81,1.92,2.99
					c0.4,1.19,0.51,2.56,0.31,4.12c-0.17,1.2-0.5,2.38-1,3.55c-0.5,1.17-1.21,2.23-2.13,3.18c-0.92,0.95-2.07,1.71-3.45,2.28
					c-1.38,0.57-3.05,0.86-5,0.86h-4.43l-1.34,10.87h-4.43l3.68-30.36H392.65z M391.31,294.84c1.53,0,2.76-0.3,3.68-0.9
					c0.92-0.6,1.6-1.32,2.05-2.17c0.45-0.85,0.7-1.65,0.75-2.4c0.08-0.56,0.07-1.14-0.04-1.76c-0.11-0.61-0.35-1.2-0.71-1.76
					c-0.36-0.56-0.89-1.02-1.57-1.38c-0.68-0.36-1.55-0.54-2.61-0.54h-4.6l-1.3,10.92H391.31z M396.08,297.44l6.36,12.55h-5.19
					l-6.48-12.42L396.08,297.44z"/>
				<path class="st6" d="M439.03,310.28c-1.81,0-3.59-0.3-5.33-0.9c-1.74-0.6-3.3-1.5-4.68-2.7c-1.38-1.2-2.48-2.7-3.3-4.5
					c-0.82-1.8-1.23-3.9-1.23-6.29c0-1.84,0.34-3.73,1.02-5.67c0.68-1.94,1.71-3.73,3.09-5.38c1.38-1.64,3.1-2.98,5.17-3.99
					s4.46-1.53,7.19-1.53c1.84,0,3.62,0.3,5.35,0.9c1.73,0.6,3.29,1.5,4.68,2.7c1.39,1.2,2.5,2.71,3.33,4.52
					c0.82,1.81,1.23,3.92,1.23,6.31c0,1.84-0.35,3.73-1.05,5.67c-0.7,1.94-1.73,3.72-3.09,5.35c-1.37,1.63-3.08,2.96-5.14,3.97
					C444.2,309.77,441.79,310.28,439.03,310.28z M439.12,305.97c2.03,0,3.8-0.37,5.29-1.11c1.49-0.74,2.72-1.7,3.68-2.89
					c0.96-1.18,1.68-2.48,2.15-3.89c0.47-1.41,0.71-2.78,0.71-4.12c0-1.39-0.26-2.7-0.77-3.93c-0.52-1.23-1.23-2.32-2.13-3.28
					c-0.91-0.96-1.97-1.72-3.2-2.28c-1.23-0.56-2.58-0.84-4.06-0.84c-2.06,0-3.83,0.37-5.31,1.11c-1.48,0.74-2.69,1.71-3.64,2.91
					c-0.95,1.2-1.65,2.5-2.09,3.91c-0.45,1.41-0.67,2.77-0.67,4.08c0,1.39,0.24,2.71,0.73,3.95s1.18,2.34,2.07,3.3
					c0.89,0.96,1.95,1.71,3.18,2.26C436.29,305.7,437.64,305.97,439.12,305.97z"/>
				<path class="st6" d="M476.51,309.98h-4.39l17.23-31.58h0.25l9.49,31.58h-5.14l-6.69-24.51l3.47-2.09L476.51,309.98z
					 M481.65,298.61h10.83l1,3.85h-13.63L481.65,298.61z"/>
				<path class="st6" d="M521.3,309.98l3.68-30.36h9.28c2.79,0,5.12,0.43,6.98,1.3c1.87,0.86,3.33,2.01,4.37,3.45
					c1.05,1.44,1.76,3.05,2.15,4.85c0.39,1.8,0.5,3.63,0.33,5.5c-0.2,2.4-0.76,4.54-1.69,6.42c-0.93,1.88-2.15,3.49-3.64,4.81
					c-1.49,1.33-3.17,2.33-5.04,3.01c-1.87,0.68-3.85,1.02-5.94,1.02H521.3z M526.23,305.68h5.44c1.62,0,3.12-0.24,4.52-0.71
					c1.39-0.47,2.62-1.18,3.68-2.11c1.06-0.93,1.91-2.1,2.55-3.51c0.64-1.41,1.02-3.03,1.13-4.87c0.17-1.9,0.01-3.51-0.46-4.85
					c-0.47-1.34-1.18-2.43-2.11-3.26c-0.93-0.84-2-1.45-3.2-1.84c-1.2-0.39-2.43-0.59-3.68-0.59h-5.19L526.23,305.68z"/>
				<path class="st6" d="M573.28,279.62h4.48l-3.22,26.06h15.22l-0.54,4.31H569.6L573.28,279.62z"/>
				<path class="st6" d="M615.69,279.62h4.6l-3.68,30.36h-4.6L615.69,279.62z"/>
				<path class="st6" d="M668.39,311.03h-0.13l-20.49-23.3l1.21,0.5l-2.59,21.75h-4.48l3.85-31.33h0.17l20.24,23.29l-1-0.33l2.63-22
					h4.43L668.39,311.03z"/>
				<path class="st6" d="M697.54,279.62h19.95l-0.5,4.18h-15.35l-1.09,8.87h13.68l-0.54,4.22h-13.63l-1.09,8.83h15.93l-0.54,4.27
					h-20.49L697.54,279.62z"/>
				<path class="st6" d="M756.59,285.98c-1-0.61-2.11-1.16-3.33-1.63c-1.21-0.47-2.39-0.74-3.53-0.79
					c-0.92-0.03-1.71,0.06-2.36,0.27c-0.66,0.21-1.21,0.5-1.65,0.86c-0.45,0.36-0.78,0.78-1,1.25c-0.22,0.47-0.36,0.96-0.42,1.46
					c-0.06,0.84,0.18,1.58,0.71,2.22c0.53,0.64,1.25,1.22,2.15,1.74c0.91,0.52,1.86,1.01,2.86,1.48c1.17,0.5,2.29,1.12,3.35,1.84
					s1.9,1.66,2.53,2.8c0.63,1.14,0.86,2.62,0.69,4.43c-0.11,1.06-0.42,2.11-0.92,3.14s-1.21,1.95-2.11,2.76
					c-0.91,0.81-2.01,1.44-3.33,1.88c-1.31,0.45-2.83,0.63-4.56,0.54c-1.28-0.06-2.52-0.24-3.7-0.56c-1.19-0.32-2.29-0.75-3.32-1.3
					c-1.03-0.54-1.98-1.19-2.84-1.94l2.43-3.35c0.61,0.56,1.34,1.07,2.17,1.55c0.84,0.47,1.72,0.86,2.66,1.15
					c0.93,0.29,1.85,0.47,2.74,0.52c1.09,0.03,2.08-0.14,2.97-0.5c0.89-0.36,1.62-0.9,2.2-1.61c0.57-0.71,0.9-1.54,0.98-2.49
					c0.06-0.86-0.15-1.62-0.61-2.26s-1.07-1.21-1.84-1.71c-0.77-0.5-1.6-0.96-2.49-1.38c-0.89-0.39-1.79-0.84-2.7-1.34
					c-0.91-0.5-1.74-1.09-2.49-1.76c-0.75-0.67-1.34-1.48-1.76-2.43c-0.42-0.95-0.56-2.06-0.42-3.35c0.17-1.64,0.7-3.07,1.59-4.27
					c0.89-1.2,2.06-2.1,3.49-2.72c1.44-0.61,3.05-0.92,4.83-0.92c1.37,0.08,2.6,0.27,3.7,0.56c1.1,0.29,2.1,0.66,2.99,1.11
					c0.89,0.45,1.71,0.93,2.47,1.46L756.59,285.98z"/>
			</g>
		</g>
	</g>
</g>
<g>
	<path class="st6" d="M281.79,205.41c-9.5,3.2-19.14,6.07-28.48,9.69c-9.8,3.8-18.89,9.05-26.1,16.92
		c-11.11,12.12-13.07,27.97-5.9,42.75c9.41,19.41,24.37,33.34,43.5,44.61c-4.28,0-7.72,0-11.15,0c-22.94-0.02-45.88-0.11-68.81,0.02
		c-3.59,0.02-5.38-1.03-6.56-4.52c-4.67-13.81-8.15-27.71-6.79-42.52c1.79-19.55,11.73-33.92,27.62-44.61
		c14.8-9.96,31.51-15.12,48.84-18.26c11.19-2.03,22.54-3.18,33.81-4.73C281.77,204.97,281.78,205.19,281.79,205.41z"/>
	<path class="st5" d="M247.1,180.58c0,4.24-0.04,8.25,0.01,12.25c0.04,2.88-2.15,2.29-3.75,2.42c-18.09,1.56-36.06,3.96-53.68,8.44
		c-22.3,5.68-43.47,13.88-61.11,29.25c-4.16,3.62-8,7.7-11.49,11.98c-3.4,4.17-6.15,8.86-9.31,13.51c0-25.91,0-51.73,0-77.86
		C154.09,180.58,200.3,180.58,247.1,180.58z"/>
	<path class="st6" d="M159.9,319.35c-5.93,0-11.07,0-16.21,0c-8.7,0-17.4-0.13-26.09,0.07c-3.15,0.07-4.66-1.12-5.19-4.07
		c-4.65-25.73-0.55-49.2,18.2-68.65c15.55-16.14,35.33-24.65,56.46-30.5c6.85-1.9,13.8-3.41,20.88-4.63
		c-21.35,8.54-40.61,19.51-50.37,41.74C147.93,275.29,151.34,297.09,159.9,319.35z"/>
	<path class="st5" d="M246.81,291.43c-9.23-9.92-17.03-19.92-18.3-33.47c-0.68-7.25,2.23-13.37,7.27-18.37
		c3.18-3.15,6.85-5.8,11.03-9.29C246.81,251.17,246.81,270.93,246.81,291.43z"/>
</g>
<line class="st12" x1="309.09" y1="180.58" x2="309.09" y2="319.39"/>
</svg>
