<?xml version="1.0" encoding="utf-8"?>
<!-- Generator: Adobe Illustrator 24.1.2, SVG Export Plug-In . SVG Version: 6.00 Build 0)  -->
<svg version="1.1" id="Layer_1" xmlns="http://www.w3.org/2000/svg" xmlns:xlink="http://www.w3.org/1999/xlink" x="0px" y="0px"
	 viewBox="0 0 900 500" style="enable-background:new 0 0 900 500;" xml:space="preserve">
<style type="text/css">
	.st0{fill:#0A0A0A;}
	.st1{fill:#28208C;}
	.st2{fill:#FFFFFF;}
	.st3{fill:#0C2A43;}
	.st4{fill:#ED4545;}
	.st5{fill:#212D94;}
	.st6{fill:#0177C1;}
	.st7{fill:#013E7D;}
	.st8{fill:#10AD5D;}
	.st9{fill:#0071BC;}
	.st10{fill:#3B3B3B;}
	.st11{fill:#FFCC57;}
</style>
<g>
	<g>
		<rect class="st2" width="900" height="500"/>
	</g>
	<g>
		<g>
			<g>
				<g>
					<path class="st6" d="M265.75,106.16c0,0,52.6,65.87,142.71,25.16S587.3-5.43,684.27,125.38c0,0-76.39-83.25-226.41,31.09
						S265.75,106.16,265.75,106.16z"/>
				</g>
			</g>
			<g>
				<g>
					<path class="st6" d="M265.75,82.98c0,0,65.41,78.98,216.35-5.49C482.1,77.49,329.63,197.94,265.75,82.98z"/>
				</g>
			</g>
			<g>
				<g>
					<path class="st6" d="M476.3,161.05c0,0,163.75-114.04,214.37-3.66C690.67,157.39,647.37,79.63,476.3,161.05z"/>
				</g>
			</g>
		</g>
		<g>
			<path class="st6" d="M221.52,232.89v32.41h-2.56c-0.83-6.22-2.31-11.17-4.46-14.86c-2.14-3.68-5.19-6.61-9.16-8.78
				c-3.96-2.16-8.06-3.25-12.3-3.25c-4.79,0-8.75,1.46-11.88,4.39c-3.13,2.93-4.7,6.25-4.7,9.98c0,2.86,0.99,5.46,2.97,7.81
				c2.86,3.46,9.65,8.06,20.38,13.82c8.75,4.7,14.73,8.3,17.93,10.81c3.2,2.51,5.67,5.47,7.39,8.88c1.73,3.41,2.59,6.98,2.59,10.71
				c0,7.09-2.75,13.21-8.26,18.35c-5.51,5.14-12.59,7.7-21.25,7.7c-2.72,0-5.28-0.21-7.67-0.62c-1.43-0.23-4.39-1.07-8.88-2.52
				s-7.34-2.18-8.53-2.18c-1.15,0-2.06,0.35-2.73,1.04c-0.67,0.69-1.16,2.12-1.49,4.28h-2.56v-32.13h2.56
				c1.2,6.73,2.81,11.76,4.84,15.1c2.03,3.34,5.12,6.12,9.29,8.33s8.74,3.32,13.72,3.32c5.76,0,10.31-1.52,13.65-4.56
				c3.34-3.04,5.01-6.63,5.01-10.78c0-2.3-0.63-4.63-1.9-6.98c-1.27-2.35-3.24-4.54-5.91-6.56c-1.8-1.38-6.7-4.32-14.72-8.81
				c-8.02-4.49-13.72-8.07-17.1-10.74s-5.95-5.62-7.7-8.84c-1.75-3.22-2.63-6.77-2.63-10.64c0-6.72,2.58-12.52,7.74-17.38
				s11.72-7.29,19.69-7.29c4.97,0,10.25,1.22,15.82,3.66c2.58,1.15,4.4,1.73,5.46,1.73c1.2,0,2.18-0.36,2.94-1.07
				c0.76-0.71,1.37-2.15,1.83-4.32H221.52z"/>
			<path class="st6" d="M262.08,240.14v37.04h20.59c5.34,0,8.91-0.81,10.71-2.42c2.39-2.12,3.73-5.85,4.01-11.19h2.56v32.62h-2.56
				c-0.65-4.56-1.29-7.49-1.93-8.78c-0.83-1.61-2.19-2.88-4.08-3.8c-1.89-0.92-4.79-1.38-8.71-1.38h-20.59v30.89
				c0,4.15,0.18,6.67,0.55,7.57c0.37,0.9,1.01,1.61,1.93,2.14c0.92,0.53,2.67,0.79,5.25,0.79h15.89c5.3,0,9.14-0.37,11.54-1.11
				c2.39-0.74,4.7-2.19,6.91-4.35c2.86-2.86,5.78-7.16,8.78-12.92h2.76l-8.08,23.49h-72.21v-2.56h3.32c2.21,0,4.31-0.53,6.29-1.59
				c1.47-0.74,2.48-1.84,3.01-3.32c0.53-1.47,0.79-4.49,0.79-9.05v-60.88c0-5.94-0.6-9.6-1.8-10.99c-1.66-1.84-4.42-2.76-8.29-2.76
				h-3.32v-2.56h72.21l1.04,20.52h-2.69c-0.97-4.93-2.04-8.31-3.21-10.16c-1.17-1.84-2.91-3.25-5.22-4.21
				c-1.84-0.69-5.09-1.04-9.74-1.04H262.08z"/>
			<path class="st6" d="M380.86,297.36h-36.28l-6.36,14.79c-1.57,3.64-2.35,6.36-2.35,8.15c0,1.43,0.68,2.68,2.04,3.77
				c1.36,1.08,4.29,1.79,8.81,2.11v2.56h-29.5v-2.56c3.92-0.69,6.45-1.59,7.6-2.7c2.35-2.21,4.95-6.7,7.81-13.47l32.96-77.11h2.42
				l32.61,77.94c2.63,6.27,5.01,10.33,7.15,12.2s5.12,2.91,8.95,3.14v2.56h-36.97v-2.56c3.73-0.18,6.25-0.81,7.57-1.87
				c1.31-1.06,1.97-2.35,1.97-3.87c0-2.03-0.92-5.23-2.76-9.6L380.86,297.36z M378.93,292.24l-15.89-37.87l-16.31,37.87H378.93z"/>
			<path class="st7" d="M505.11,232.89v32.41h-2.56c-0.83-6.22-2.31-11.17-4.46-14.86c-2.14-3.68-5.19-6.61-9.16-8.78
				c-3.96-2.16-8.06-3.25-12.3-3.25c-4.79,0-8.75,1.46-11.88,4.39c-3.13,2.93-4.7,6.25-4.7,9.98c0,2.86,0.99,5.46,2.97,7.81
				c2.86,3.46,9.65,8.06,20.38,13.82c8.75,4.7,14.73,8.3,17.93,10.81c3.2,2.51,5.67,5.47,7.39,8.88c1.73,3.41,2.59,6.98,2.59,10.71
				c0,7.09-2.75,13.21-8.26,18.35c-5.51,5.14-12.59,7.7-21.25,7.7c-2.72,0-5.28-0.21-7.67-0.62c-1.43-0.23-4.39-1.07-8.88-2.52
				s-7.34-2.18-8.53-2.18c-1.15,0-2.06,0.35-2.73,1.04c-0.67,0.69-1.16,2.12-1.49,4.28h-2.56v-32.13h2.56
				c1.2,6.73,2.81,11.76,4.84,15.1c2.03,3.34,5.12,6.12,9.29,8.33s8.74,3.32,13.72,3.32c5.76,0,10.31-1.52,13.65-4.56
				c3.34-3.04,5.01-6.63,5.01-10.78c0-2.3-0.63-4.63-1.9-6.98c-1.27-2.35-3.24-4.54-5.91-6.56c-1.8-1.38-6.7-4.32-14.72-8.81
				c-8.02-4.49-13.72-8.07-17.1-10.74s-5.95-5.62-7.7-8.84c-1.75-3.22-2.63-6.77-2.63-10.64c0-6.72,2.58-12.52,7.74-17.38
				s11.72-7.29,19.69-7.29c4.97,0,10.25,1.22,15.82,3.66c2.58,1.15,4.4,1.73,5.46,1.73c1.2,0,2.18-0.36,2.94-1.07
				c0.76-0.71,1.37-2.15,1.83-4.32H505.11z"/>
			<path class="st7" d="M559.77,326.17v2.56h-40.15v-2.56h3.32c3.87,0,6.68-1.13,8.43-3.39c1.11-1.47,1.66-5.02,1.66-10.64v-60.53
				c0-4.74-0.3-7.88-0.9-9.4c-0.46-1.15-1.41-2.14-2.83-2.97c-2.03-1.11-4.15-1.66-6.36-1.66h-3.32v-2.56h40.15v2.56h-3.39
				c-3.82,0-6.61,1.13-8.36,3.39c-1.15,1.47-1.73,5.02-1.73,10.64v60.53c0,4.74,0.3,7.88,0.9,9.4c0.46,1.15,1.43,2.14,2.9,2.97
				c1.98,1.11,4.08,1.66,6.29,1.66H559.77z"/>
			<path class="st7" d="M562.81,328.73v-2.56h3.52c3.96,0,6.77-1.27,8.43-3.8c1.01-1.52,1.52-4.93,1.52-10.23v-60.53
				c0-5.85-0.65-9.51-1.93-10.99c-1.8-2.03-4.47-3.04-8.02-3.04h-3.52v-2.56h38.14c14,0,24.66,1.59,31.96,4.77
				c7.3,3.18,13.17,8.48,17.62,15.89c4.45,7.42,6.67,15.99,6.67,25.71c0,13.04-3.96,23.93-11.88,32.68
				c-8.89,9.77-22.43,14.65-40.63,14.65H562.81z M589.55,321.96c5.85,1.29,10.76,1.93,14.72,1.93c10.69,0,19.55-3.75,26.6-11.26
				s10.57-17.69,10.57-30.54c0-12.95-3.52-23.15-10.57-30.61s-16.1-11.19-27.16-11.19c-4.15,0-8.87,0.67-14.17,2V321.96z"/>
			<path class="st7" d="M689.33,240.14v37.04h20.59c5.34,0,8.91-0.81,10.71-2.42c2.39-2.12,3.73-5.85,4.01-11.19h2.56v32.62h-2.56
				c-0.65-4.56-1.29-7.49-1.93-8.78c-0.83-1.61-2.19-2.88-4.08-3.8c-1.89-0.92-4.79-1.38-8.71-1.38h-20.59v30.89
				c0,4.15,0.18,6.67,0.55,7.57c0.37,0.9,1.01,1.61,1.93,2.14c0.92,0.53,2.67,0.79,5.25,0.79h15.89c5.3,0,9.14-0.37,11.54-1.11
				c2.39-0.74,4.7-2.19,6.91-4.35c2.86-2.86,5.78-7.16,8.78-12.92h2.76l-8.08,23.49h-72.21v-2.56h3.32c2.21,0,4.31-0.53,6.29-1.59
				c1.47-0.74,2.48-1.84,3.01-3.32c0.53-1.47,0.79-4.49,0.79-9.05v-60.88c0-5.94-0.6-9.6-1.8-10.99c-1.66-1.84-4.42-2.76-8.29-2.76
				h-3.32v-2.56h72.21l1.04,20.52h-2.69c-0.97-4.93-2.04-8.31-3.21-10.16c-1.17-1.84-2.91-3.25-5.22-4.21
				c-1.84-0.69-5.09-1.04-9.74-1.04H689.33z"/>
		</g>
		<g>
			<path class="st6" d="M268.35,366.6h-13.67v33.73h-5.09V366.6h-13.67v-4.52h32.42V366.6z"/>
			<path class="st6" d="M330.4,400.34h-6.6L311,385.13h-7.17v15.21h-5.09v-38.26h10.71c2.31,0,4.24,0.15,5.78,0.45
				c1.54,0.3,2.93,0.83,4.16,1.61c1.39,0.87,2.47,1.97,3.25,3.3c0.78,1.33,1.17,3.01,1.17,5.05c0,2.76-0.69,5.07-2.08,6.92
				c-1.39,1.86-3.3,3.26-5.73,4.2L330.4,400.34z M318.5,372.84c0-1.1-0.19-2.07-0.58-2.92s-1.02-1.56-1.91-2.15
				c-0.74-0.5-1.61-0.84-2.62-1.04c-1.01-0.2-2.2-0.29-3.57-0.29h-5.99v14.44h5.14c1.61,0,3.01-0.14,4.21-0.42
				c1.2-0.28,2.22-0.81,3.06-1.58c0.77-0.72,1.34-1.55,1.71-2.48C318.32,375.47,318.5,374.28,318.5,372.84z"/>
			<path class="st6" d="M390.75,400.34h-5.42l-3.75-10.66h-16.55l-3.75,10.66h-5.16l13.93-38.26h6.78L390.75,400.34z M380.01,385.31
				l-6.71-18.78l-6.73,18.78H380.01z"/>
			<path class="st6" d="M454.14,381.25c0,3.48-0.76,6.63-2.27,9.46c-1.52,2.83-3.53,5.02-6.05,6.58c-1.75,1.08-3.7,1.86-5.85,2.34
				c-2.15,0.48-4.98,0.72-8.49,0.72h-9.66v-38.26h9.56c3.73,0,6.7,0.27,8.9,0.81c2.2,0.54,4.06,1.28,5.59,2.22
				c2.6,1.63,4.63,3.79,6.09,6.5C453.41,374.32,454.14,377.53,454.14,381.25z M448.82,381.17c0-3-0.52-5.52-1.57-7.58
				s-2.6-3.67-4.68-4.86c-1.51-0.86-3.11-1.45-4.8-1.79s-3.72-0.5-6.09-0.5h-4.78v29.52h4.78c2.45,0,4.59-0.18,6.41-0.54
				s3.5-1.03,5.02-2c1.9-1.22,3.33-2.82,4.28-4.8C448.34,386.63,448.82,384.15,448.82,381.17z"/>
			<path class="st6" d="M512.82,400.34h-25.2v-38.26h25.2v4.52H492.7v10.48h20.12v4.52H492.7v14.21h20.12V400.34z"/>
			<path class="st6" d="M577.8,400.34h-6.6l-12.8-15.21h-7.17v15.21h-5.09v-38.26h10.71c2.31,0,4.24,0.15,5.78,0.45
				s2.93,0.83,4.16,1.61c1.39,0.87,2.47,1.97,3.25,3.3s1.17,3.01,1.17,5.05c0,2.76-0.7,5.07-2.08,6.92s-3.3,3.26-5.73,4.2
				L577.8,400.34z M565.9,372.84c0-1.1-0.19-2.07-0.58-2.92c-0.39-0.85-1.02-1.56-1.91-2.15c-0.74-0.5-1.61-0.84-2.62-1.04
				c-1.01-0.2-2.2-0.29-3.57-0.29h-5.99v14.44h5.14c1.61,0,3.02-0.14,4.21-0.42c1.2-0.28,2.22-0.81,3.06-1.58
				c0.77-0.72,1.34-1.55,1.71-2.48C565.72,375.47,565.9,374.28,565.9,372.84z"/>
			<path class="st6" d="M635.79,389.42c0,1.49-0.35,2.96-1.04,4.42s-1.67,2.69-2.92,3.7c-1.37,1.1-2.97,1.95-4.79,2.57
				c-1.82,0.62-4.02,0.92-6.59,0.92c-2.76,0-5.24-0.26-7.44-0.77s-4.44-1.28-6.72-2.29v-6.37h0.36c1.94,1.61,4.17,2.85,6.71,3.73
				c2.54,0.87,4.92,1.31,7.14,1.31c3.15,0,5.61-0.59,7.36-1.77s2.63-2.76,2.63-4.73c0-1.7-0.42-2.95-1.25-3.75
				c-0.83-0.8-2.09-1.43-3.79-1.88c-1.29-0.34-2.68-0.63-4.18-0.85c-1.5-0.22-3.09-0.5-4.77-0.85c-3.39-0.72-5.9-1.95-7.54-3.69
				c-1.63-1.74-2.45-4-2.45-6.8c0-3.2,1.35-5.83,4.06-7.88c2.71-2.05,6.14-3.07,10.3-3.07c2.69,0,5.16,0.26,7.4,0.77
				s4.23,1.15,5.96,1.9v6.01h-0.36c-1.46-1.23-3.37-2.26-5.74-3.07c-2.37-0.81-4.8-1.22-7.29-1.22c-2.72,0-4.91,0.57-6.56,1.7
				c-1.65,1.13-2.48,2.59-2.48,4.37c0,1.59,0.41,2.84,1.23,3.75c0.82,0.91,2.27,1.6,4.34,2.08c1.1,0.24,2.66,0.53,4.68,0.87
				c2.02,0.34,3.73,0.69,5.14,1.05c2.84,0.75,4.98,1.89,6.42,3.42C635.07,384.54,635.79,386.68,635.79,389.42z"/>
		</g>
	</g>
</g>
</svg>
